<svg width="16" height="16" viewBox="0 0 16 16" fill="none" xmlns="http://www.w3.org/2000/svg">
<path d="M4.66624 6.66673H6.66624V4.66673L4.33291 2.3334C5.07933 1.97691 5.91791 1.8606 6.73318 2.00048C7.54844 2.14036 8.30029 2.52954 8.88519 3.11445C9.4701 3.69935 9.85928 4.4512 9.99916 5.26647C10.139 6.08173 10.0227 6.92031 9.66624 7.66673L13.6662 11.6667C13.9315 11.9319 14.0805 12.2917 14.0805 12.6667C14.0805 13.0418 13.9315 13.4015 13.6662 13.6667C13.401 13.9319 13.0413 14.0809 12.6662 14.0809C12.2912 14.0809 11.9315 13.9319 11.6662 13.6667L7.66624 9.66673C6.91982 10.0232 6.08124 10.1395 5.26598 9.99965C4.45071 9.85977 3.69886 9.47059 3.11396 8.88568C2.52906 8.30078 2.13987 7.54893 1.99999 6.73366C1.86011 5.9184 1.97643 5.07982 2.33291 4.3334L4.66624 6.66673Z" stroke="#666666" stroke-linecap="round" stroke-linejoin="round"/>
</svg>
