<svg width="16" height="16" viewBox="0 0 16 16" fill="none" xmlns="http://www.w3.org/2000/svg">
<path d="M9.33333 5.66667V4.33333C9.33333 3.97971 9.19286 3.64057 8.94281 3.39052C8.69276 3.14048 8.35362 3 8 3H3.33333C2.97971 3 2.64057 3.14048 2.39052 3.39052C2.14048 3.64057 2 3.97971 2 4.33333V12.3333C2 12.687 2.14048 13.0261 2.39052 13.2761C2.64057 13.5262 2.97971 13.6667 3.33333 13.6667H8C8.35362 13.6667 8.69276 13.5262 8.94281 13.2761C9.19286 13.0261 9.33333 12.687 9.33333 12.3333V11M6 8.33333H14M14 8.33333L12 6.33333M14 8.33333L12 10.3333" stroke="black" stroke-linecap="round" stroke-linejoin="round"/>
</svg>
