<svg width="12" height="12" viewBox="0 0 12 12" fill="none" xmlns="http://www.w3.org/2000/svg">
<path d="M0.664062 3.33335V2.00002C0.664062 1.6464 0.804538 1.30726 1.05459 1.05721C1.30464 0.807163 1.64377 0.666687 1.9974 0.666687H3.33073M0.664062 8.66669V10C0.664063 10.3536 0.804538 10.6928 1.05459 10.9428C1.30464 11.1929 1.64377 11.3334 1.9974 11.3334H3.33073M8.66406 0.666687H9.9974C10.351 0.666687 10.6902 0.807163 10.9402 1.05721C11.1903 1.30726 11.3307 1.6464 11.3307 2.00002V3.33335M8.66406 11.3334H9.9974C10.351 11.3334 10.6902 11.1929 10.9402 10.9428C11.1903 10.6928 11.3307 10.3536 11.3307 10V8.66669M5.9974 5.33335V5.34002M5.9974 10L3.66406 6.66667C3.43944 6.26069 3.32463 5.80313 3.33098 5.3392C3.33733 4.87526 3.46461 4.42102 3.70025 4.02133C3.93589 3.62165 4.27174 3.29037 4.67461 3.06021C5.07747 2.83006 5.53342 2.709 5.9974 2.709C6.46137 2.709 6.91732 2.83006 7.32019 3.06021C7.72305 3.29037 8.0589 3.62165 8.29454 4.02133C8.53019 4.42102 8.65747 4.87526 8.66381 5.3392C8.67016 5.80313 8.55535 6.26069 8.33073 6.66667L5.9974 10Z" stroke="black" stroke-linecap="round" stroke-linejoin="round"/>
</svg>
